<?xml version="1.0" encoding="UTF-8"?><svg id="Layer_1" xmlns="http://www.w3.org/2000/svg" viewBox="0 0 218.42 60.52"><defs><style>.cls-1{fill:#f47500;}.cls-1,.cls-2{stroke-width:0px;}.cls-2{fill:#21295a;}</style></defs><path class="cls-1" d="m18.19,43.51c1.57,1.57,4.13,1.57,5.71-.01,1.58-1.58,1.59-4.14.01-5.71-1.57-1.57-4.13-1.57-5.71.01-1.58,1.58-1.59,4.14-.01,5.71Z"/><path class="cls-2" d="m46.7,39.67v-.08s-14.64,1.31-14.64,1.31l14.65-6.86v-6.12s-16.98,7.95-16.98,7.95l16.79-16.79c-.54-1.89-2.03-3.37-3.91-3.91l-16.79,16.79,7.95-17h-6.12s-6.86,14.66-6.86,14.66l1.31-14.64h-.08c-2.94,0-5.34,2.4-5.35,5.35l-.03,13.78c3.07-2.09,7.29-1.78,9.99.92,2.71,2.71,3.01,6.92.92,9.99l13.78-.03c2.94,0,5.34-2.4,5.35-5.35h0Z"/><path class="cls-2" d="m58.48,45.21V14.97h6.5v24.49h13.75v5.74h-20.25Z"/><path class="cls-2" d="m87.76,45.54c-4.49,0-7.67-2.73-7.67-6.33,0-3.9,2.73-6.25,7.67-6.88l4.03-.55c1.01-.17,1.55-.75,1.55-1.59,0-1.3-1.34-2.43-3.56-2.43-2.01,0-3.69,1.13-3.77,3.1h-5.91c.55-4.74,4.11-7.76,9.69-7.76,6,0,9.73,3.4,9.73,8.93v6.5c0,1.09.38,1.76,1.26,1.76.29,0,.75-.08.75-.08v4.99s-1.47.29-2.98.29c-2.26,0-3.9-1.01-4.24-2.81-.88,1.76-3.35,2.85-6.54,2.85Zm1.09-4.53c2.94,0,4.7-2.31,4.7-4.99v-.46l-4.74.8c-1.8.29-2.68,1.17-2.68,2.52,0,1.17,1.01,2.14,2.73,2.14Z"/><path class="cls-2" d="m103.58,45.21v-21.76h6.12v2.98c1.34-1.97,3.77-3.31,6.71-3.31,4.78,0,8.01,3.1,8.01,7.88v14.22h-6.16v-12.62c0-2.39-1.47-4.03-3.77-4.03-3.1,0-4.78,2.56-4.78,7.09v9.56h-6.12Z"/><path class="cls-2" d="m137.85,45.54c-4.7,0-8.22-2.47-8.22-7.63v-9.39h-3.52v-5.07h3.52v-6.33h6.16v6.33h4.86v5.07h-4.86v8.68c0,1.97,1.26,3.1,2.94,3.1.63,0,1.34-.13,1.93-.29v5.24c-.71.17-1.64.29-2.81.29Z"/><path class="cls-2" d="m141.82,34.31c0-5.41,3.27-11.2,10.69-11.2s10.95,5.74,10.95,10.78c0,1.01-.08,2.05-.08,2.05h-15.47c.5,2.89,2.39,4.49,5.2,4.49,2.1,0,3.65-.92,4.11-2.47h6.12c-.67,4.78-4.78,7.59-10.44,7.59-7.42,0-11.07-5.79-11.07-11.24Zm6.21-2.77h8.81c-.17-2.26-1.68-3.86-4.32-3.86-2.31,0-3.9,1.34-4.49,3.86Z"/><path class="cls-2" d="m179.32,29.06c-.59-.13-1.3-.21-2.01-.21-2.85,0-5.7,2.22-5.7,8.47v7.88h-6.12v-21.76h6.12v3.77c1.01-2.35,3.86-4.11,6.46-4.11.5,0,.92.04,1.26.08v5.87Z"/><path class="cls-2" d="m180.94,45.21v-21.76h6.12v2.98c1.34-1.97,3.77-3.31,6.71-3.31,4.78,0,8.01,3.1,8.01,7.88v14.22h-6.16v-12.62c0-2.39-1.47-4.03-3.77-4.03-3.1,0-4.78,2.56-4.78,7.09v9.56h-6.12Z"/></svg>